<?xml version="1.0" encoding="UTF-8"?>
<svg width="25px" height="24px" viewBox="0 0 25 24" version="1.1" xmlns="http://www.w3.org/2000/svg" xmlns:xlink="http://www.w3.org/1999/xlink">
    <!-- Generator: Sketch 55.2 (78181) - https://sketchapp.com -->
    <title>social-icons</title>
    <desc>Created with Sketch.</desc>
    <g id="Page-1" stroke="none" stroke-width="1" fill="none" fill-rule="evenodd">
        <g id="social-icons" fill="#000000" fill-rule="nonzero">
            <path d="M24,8.166 L23.982,8.079 L23.965,8.029 C23.955,8.005 23.947,7.979 23.935,7.954 C23.932,7.936 23.92,7.92 23.915,7.904 L23.88,7.837 L23.85,7.787 L23.806,7.727 L23.76,7.682 L23.7,7.637 L23.654,7.607 L23.594,7.563 L23.55,7.523 L23.535,7.503 L12.58,0.174 C12.233,-0.058 11.784,-0.058 11.438,0.174 L0.453,7.486 L0.438,7.501 L0.394,7.536 L0.334,7.586 L0.296,7.626 L0.246,7.682 L0.209,7.727 L0.159,7.787 C0.139,7.804 0.129,7.817 0.129,7.833 L0.079,7.893 L0.059,7.953 C0.039,7.963 0.039,7.993 0.029,8.023 L0.019,8.073 C0,8.104 0,8.134 0,8.164 L0,15.661 C0,15.705 0.003,15.751 0.01,15.796 L0.02,15.842 C0.025,15.872 0.03,15.902 0.04,15.928 L0.055,15.978 C0.065,16.005 0.071,16.031 0.082,16.053 L0.104,16.103 C0.104,16.113 0.119,16.143 0.134,16.163 L0.164,16.203 C0.179,16.213 0.194,16.243 0.209,16.263 L0.239,16.303 L0.279,16.343 C0.289,16.356 0.289,16.373 0.309,16.373 L0.369,16.415 L0.409,16.445 L0.419,16.459 L11.389,23.789 C11.553,23.909 11.764,23.952 11.959,23.952 C12.154,23.952 12.349,23.892 12.529,23.772 L23.519,16.492 L23.533,16.482 L23.579,16.445 L23.639,16.402 L23.687,16.366 L23.739,16.308 L23.772,16.263 L23.812,16.203 L23.842,16.153 L23.872,16.083 L23.888,16.031 L23.918,15.954 L23.933,15.909 L23.963,15.829 L23.963,8.329 C23.963,8.279 23.963,8.234 23.947,8.189 L23.933,8.144 L23.977,8.147 L24,8.166 Z M12.01,14.446 L8.36,12.006 L12.01,9.564 L15.66,12.004 L12.01,14.444 L12.01,14.446 Z M10.976,7.772 L6.503,10.762 L2.89,8.346 L10.976,2.956 L10.976,7.774 L10.976,7.772 Z M4.646,12.005 L2.064,13.735 L2.064,10.284 L4.646,12.01 L4.646,12.005 Z M6.503,13.255 L10.976,16.245 L10.976,21.065 L2.89,15.674 L6.508,13.257 L6.508,13.253 L6.503,13.255 Z M13.04,16.245 L17.514,13.265 L21.127,15.685 L13.04,21.075 L13.04,16.255 L13.04,16.245 Z M19.37,12.015 L21.953,10.295 L21.953,13.751 L19.37,12.021 L19.37,12.015 Z M17.515,10.775 L13.042,7.784 L13.042,2.954 L21.127,8.344 L17.515,10.759 L17.515,10.762 L17.515,10.775 Z" id="CodePen"></path>
            <path d="M12,24 C5.385,24 0,18.615 0,12 C0,5.385 5.385,0 12,0 C18.615,0 24,5.385 24,12 C24,18.615 18.615,24 12,24 Z M22.12,13.642 C21.77,13.532 18.95,12.689 15.736,13.204 C17.076,16.888 17.623,19.888 17.728,20.512 C20.028,18.957 21.664,16.492 22.123,13.642 L22.12,13.642 Z M16.005,21.45 C15.852,20.55 15.255,17.418 13.815,13.68 L13.749,13.7 C7.959,15.715 5.889,19.725 5.709,20.1 C7.439,21.458 9.629,22.266 11.999,22.266 C13.419,22.266 14.769,21.976 15.999,21.452 L16.005,21.45 Z M4.385,18.87 C4.617,18.47 7.43,13.815 12.717,12.105 C12.852,12.06 12.987,12.021 13.122,11.985 C12.862,11.4 12.582,10.818 12.29,10.245 C7.17,11.775 2.206,11.71 1.756,11.7 L1.752,12.012 C1.752,14.645 2.75,17.049 4.386,18.867 L4.385,18.87 Z M1.965,9.915 C2.425,9.923 6.648,9.941 11.442,8.667 C9.744,5.649 7.912,3.109 7.642,2.739 C4.774,4.089 2.632,6.729 1.966,9.909 L1.965,9.915 Z M9.6,2.052 C9.882,2.432 11.745,4.966 13.422,8.052 C17.067,6.687 18.612,4.612 18.795,4.35 C16.985,2.74 14.605,1.764 12,1.764 C11.175,1.764 10.37,1.864 9.6,2.049 L9.6,2.052 Z M19.935,5.535 C19.717,5.825 18,8.028 14.211,9.575 C14.451,10.065 14.681,10.56 14.891,11.061 C14.971,11.241 15.041,11.421 15.111,11.591 C18.521,11.161 21.911,11.851 22.251,11.921 C22.231,9.501 21.371,7.281 19.941,5.541 L19.935,5.535 Z" id="Dribbble"></path>
            <path d="M12,0 C5.37,0 0,5.373 0,12 C0,17.303 3.438,21.8 8.205,23.385 C8.805,23.498 9.025,23.127 9.025,22.808 C9.025,22.523 9.015,21.768 9.01,20.768 C5.672,21.492 4.968,19.158 4.968,19.158 C4.422,17.773 3.633,17.403 3.633,17.403 C2.546,16.659 3.717,16.674 3.717,16.674 C4.922,16.758 5.555,17.91 5.555,17.91 C6.625,19.745 8.364,19.215 9.05,18.908 C9.158,18.132 9.467,17.603 9.81,17.303 C7.145,17.003 4.344,15.971 4.344,11.373 C4.344,10.063 4.809,8.993 5.579,8.153 C5.444,7.85 5.039,6.63 5.684,4.977 C5.684,4.977 6.689,4.655 8.984,6.207 C9.944,5.94 10.964,5.808 11.984,5.802 C13.004,5.808 14.024,5.94 14.984,6.207 C17.264,4.655 18.269,4.977 18.269,4.977 C18.914,6.63 18.509,7.85 18.389,8.153 C19.154,8.993 19.619,10.063 19.619,11.373 C19.619,15.983 16.814,16.998 14.144,17.293 C14.564,17.653 14.954,18.389 14.954,19.513 C14.954,21.119 14.939,22.409 14.939,22.799 C14.939,23.114 15.149,23.489 15.764,23.369 C20.565,21.795 24,17.295 24,12 C24,5.373 18.627,0 12,0" id="Github"></path>
            <path d="M19.094,15.977 L19.094,0.49 L17.035,0.49 L17.035,3.396 L16.971,3.396 C16.76,2.941 16.49,2.505 16.129,2.089 C15.769,1.677 15.362,1.312 14.897,0.995 C14.431,0.681 13.935,0.434 13.378,0.259 C12.825,0.09 12.238,0 11.607,0 C10.397,0 9.307,0.225 8.361,0.67 C7.414,1.117 6.618,1.727 5.976,2.5 C5.334,3.273 4.843,4.176 4.506,5.211 C4.17,6.248 4,7.34 4,8.494 C4,9.693 4.141,10.82 4.425,11.876 C4.711,12.933 5.162,13.852 5.793,14.638 C6.424,15.418 7.205,16.035 8.168,16.471 C9.129,16.907 10.287,17.132 11.639,17.132 C12.887,17.132 13.969,16.817 14.901,16.186 C15.833,15.555 16.539,14.713 17.02,13.661 L17.081,13.661 L17.081,15.945 C17.081,17.989 16.66,19.552 15.817,20.65 C14.977,21.731 13.593,22.288 11.671,22.288 C11.099,22.288 10.543,22.227 10.002,22.107 C9.46,21.987 8.966,21.792 8.515,21.537 C8.078,21.266 7.688,20.936 7.372,20.499 C7.056,20.064 6.846,19.538 6.74,18.906 L4.633,18.906 C4.7,19.793 4.948,20.56 5.37,21.206 C5.794,21.852 6.331,22.378 6.972,22.799 C7.613,23.205 8.339,23.505 9.144,23.701 C9.955,23.895 10.783,24.001 11.638,24.001 C13.021,24.001 14.179,23.806 15.124,23.446 C16.071,23.07 16.838,22.544 17.425,21.838 C18.026,21.13 18.446,20.289 18.718,19.282 C18.988,18.275 19.138,17.148 19.138,15.915 L19.094,15.977 L19.094,15.977 Z M11.61,15.42 C10.655,15.42 9.826,15.231 9.131,14.849 C8.434,14.469 7.854,13.967 7.399,13.346 C6.932,12.725 6.602,12.014 6.377,11.207 C6.152,10.4 6.045,9.574 6.045,8.723 C6.045,7.852 6.15,6.998 6.346,6.16 C6.556,5.32 6.886,4.573 7.338,3.92 C7.789,3.268 8.375,2.738 9.066,2.336 C9.757,1.934 10.599,1.731 11.576,1.731 C12.553,1.731 13.379,1.94 14.071,2.352 C14.747,2.767 15.318,3.311 15.754,3.986 C16.19,4.663 16.505,5.415 16.701,6.241 C16.896,7.067 16.986,7.897 16.986,8.723 C16.986,9.575 16.866,10.401 16.641,11.207 C16.415,12.014 16.069,12.725 15.603,13.346 C15.138,13.967 14.582,14.469 13.905,14.849 C13.229,15.231 12.447,15.42 11.546,15.42 L11.61,15.42 Z" id="Goodreads"></path>
            <path d="M12,0 C8.74,0 8.333,0.015 7.053,0.072 C5.775,0.132 4.905,0.333 4.14,0.63 C3.351,0.936 2.681,1.347 2.014,2.014 C1.347,2.681 0.935,3.35 0.63,4.14 C0.333,4.905 0.131,5.775 0.072,7.053 C0.012,8.333 0,8.74 0,12 C0,15.26 0.015,15.667 0.072,16.947 C0.132,18.224 0.333,19.095 0.63,19.86 C0.936,20.648 1.347,21.319 2.014,21.986 C2.681,22.652 3.35,23.065 4.14,23.37 C4.906,23.666 5.776,23.869 7.053,23.928 C8.333,23.988 8.74,24 12,24 C15.26,24 15.667,23.985 16.947,23.928 C18.224,23.868 19.095,23.666 19.86,23.37 C20.648,23.064 21.319,22.652 21.986,21.986 C22.652,21.319 23.065,20.651 23.37,19.86 C23.666,19.095 23.869,18.224 23.928,16.947 C23.988,15.667 24,15.26 24,12 C24,8.74 23.985,8.333 23.928,7.053 C23.868,5.776 23.666,4.904 23.37,4.14 C23.064,3.351 22.652,2.681 21.986,2.014 C21.319,1.347 20.651,0.935 19.86,0.63 C19.095,0.333 18.224,0.131 16.947,0.072 C15.667,0.012 15.26,0 12,0 Z M12,2.16 C15.203,2.16 15.585,2.176 16.85,2.231 C18.02,2.286 18.655,2.48 19.077,2.646 C19.639,2.863 20.037,3.123 20.459,3.542 C20.878,3.962 21.138,4.361 21.355,4.923 C21.519,5.345 21.715,5.98 21.768,7.15 C21.825,8.416 21.838,8.796 21.838,12 C21.838,15.204 21.823,15.585 21.764,16.85 C21.703,18.02 21.508,18.655 21.343,19.077 C21.119,19.639 20.864,20.037 20.444,20.459 C20.025,20.878 19.62,21.138 19.064,21.355 C18.644,21.519 17.999,21.715 16.829,21.768 C15.555,21.825 15.18,21.838 11.97,21.838 C8.759,21.838 8.384,21.823 7.111,21.764 C5.94,21.703 5.295,21.508 4.875,21.343 C4.306,21.119 3.915,20.864 3.496,20.444 C3.075,20.025 2.806,19.62 2.596,19.064 C2.431,18.644 2.237,17.999 2.176,16.829 C2.131,15.569 2.115,15.18 2.115,11.985 C2.115,8.789 2.131,8.399 2.176,7.124 C2.237,5.954 2.431,5.31 2.596,4.89 C2.806,4.32 3.075,3.93 3.496,3.509 C3.915,3.09 4.306,2.82 4.875,2.611 C5.295,2.445 5.926,2.25 7.096,2.19 C8.371,2.145 8.746,2.13 11.955,2.13 L12,2.16 L12,2.16 Z M12,5.838 C8.595,5.838 5.838,8.598 5.838,12 C5.838,15.405 8.598,18.162 12,18.162 C15.405,18.162 18.162,15.402 18.162,12 C18.162,8.595 15.402,5.838 12,5.838 Z M12,16 C9.79,16 8,14.21 8,12 C8,9.79 9.79,8 12,8 C14.21,8 16,9.79 16,12 C16,14.21 14.21,16 12,16 Z M19.846,5.595 C19.846,6.39 19.2,7.035 18.406,7.035 C17.611,7.035 16.966,6.389 16.966,5.595 C16.966,4.801 17.612,4.15599884 18.406,4.15599884 C19.199,4.155 19.846,4.801 19.846,5.595 Z" id="Instagram"></path>
            <path d="M20.447,20.452 L16.893,20.452 L16.893,14.883 C16.893,13.555 16.866,11.846 15.041,11.846 C13.188,11.846 12.905,13.291 12.905,14.785 L12.905,20.452 L9.351,20.452 L9.351,9 L12.765,9 L12.765,10.561 L12.811,10.561 C13.288,9.661 14.448,8.711 16.181,8.711 C19.782,8.711 20.448,11.081 20.448,14.166 L20.448,20.452 L20.447,20.452 Z M5.337,7.433 C4.193,7.433 3.274,6.507 3.274,5.368 C3.274,4.23 4.194,3.305 5.337,3.305 C6.477,3.305 7.401,4.23 7.401,5.368 C7.401,6.507 6.476,7.433 5.337,7.433 Z M7.119,20.452 L3.555,20.452 L3.555,9 L7.119,9 L7.119,20.452 Z M22.225,0 L1.771,0 C0.792,0 0,0.774 0,1.729 L0,22.271 C0,23.227 0.792,24 1.771,24 L22.222,24 C23.2,24 24,23.227 24,22.271 L24,1.729 C24,0.774 23.2,0 22.222,0 L22.225,0 Z" id="LinkedIn"></path>
            <path d="M23.954,4.323 C23.069,4.712 22.124,4.977 21.129,5.098 C22.143,4.487 22.923,3.524 23.292,2.375 C22.341,2.93 21.287,3.334 20.165,3.559 C19.269,2.6 17.992,2 16.574,2 C13.857,2 11.654,4.203 11.654,6.917 C11.654,7.307 11.699,7.682 11.781,8.041 C7.691,7.848 4.066,5.884 1.64,2.915 C1.213,3.637 0.974,4.476 0.974,5.39 C0.974,7.1 1.844,8.603 3.162,9.486 C2.355,9.46 1.596,9.238 0.934,8.87 L0.934,8.931 C0.934,11.316 2.627,13.305 4.88,13.758 C4.467,13.869 4.031,13.929 3.584,13.929 C3.27,13.929 2.969,13.899 2.668,13.843 C3.299,15.796 5.113,17.22 7.272,17.26 C5.592,18.579 3.463,19.365 1.17,19.365 C0.78,19.365 0.391,19.342 0,19.298 C2.189,20.692 4.768,21.507 7.557,21.507 C16.611,21.507 21.556,14.011 21.556,7.521 C21.556,7.312 21.556,7.101 21.541,6.891 C22.502,6.202 23.341,5.331 24.001,4.343 L23.954,4.323 Z" id="Twitter"></path>
            <path d="M23.4904195,5.58902831 C23.2076105,4.57568508 22.4157628,3.78383734 21.4024195,3.50102831 C19.5324195,3.00001413 12.0064195,3.00001413 12.0064195,3.00001413 C12.0064195,3.00001413 4.49941953,2.99002831 2.61041953,3.50102831 C1.59707629,3.78383734 0.805228551,4.57568508 0.522419528,5.58902831 C0.167940122,7.50353887 -0.00681992353,9.4469911 0.000203535743,11.3940283 C-0.00545134068,13.3337185 0.169302976,15.2697419 0.522419528,17.1770283 C0.805228551,18.1903715 1.59707629,18.9822193 2.61041953,19.2650283 C4.47841953,19.7670283 12.0064195,19.7670283 12.0064195,19.7670283 C12.0064195,19.7670283 19.5124195,19.7670283 21.4024195,19.2650283 C22.4157628,18.9822193 23.2076105,18.1903715 23.4904195,17.1770283 C23.8361588,15.2690511 24.0035475,13.3330333 23.9904195,11.3940283 C24.0049159,9.4476789 23.8375217,7.50423229 23.4904195,5.58902831 L23.4904195,5.58902831 Z M9.60441953,14.9850283 L9.60441953,7.79202831 L15.8684195,11.3940283 L9.60441953,14.9850283 Z" id="YouTube"></path>
            <path d="M21.895921,2 C23.1469031,2 24.1610162,3.01411309 24.1610162,4.26509527 L24.1610162,17.8556669 C24.1610162,19.1066491 23.1469031,20.1207622 21.895921,20.1207622 L2.26509527,20.1207622 C1.01411309,20.1207622 0,19.1066491 0,17.8556669 L0,4.26509527 C0,3.01411309 1.01411309,2 2.26509527,2 L21.895921,2 Z M21.895921,4.26509527 L2.26509527,4.26509527 L2.26509527,6.19064745 C3.32331025,7.05245463 5.01056475,8.39251619 8.61618241,11.2158667 C9.41056946,11.8407588 10.9853342,13.3429881 12.0805081,13.325292 C13.1758664,13.3428037 14.7501242,11.8409892 15.5448338,11.2158667 C19.1510045,8.39210143 20.8378442,7.05231638 21.895921,6.19064745 L21.895921,4.26509527 Z M2.26509527,17.8556669 L21.895921,17.8556669 L21.895921,9.09722478 C20.8145721,9.95857113 19.2807295,11.167433 16.9435136,12.9975924 C15.8796764,13.8351136 14.0962917,15.6014473 12.0805081,15.5905255 C10.0547704,15.6014473 8.24848231,13.8091225 7.21708792,12.9972237 C4.87982591,11.1670183 3.34639807,9.95847896 2.26509527,9.09722478 L2.26509527,17.8556669 Z" id="Mail"></path>
        </g>
    </g>
</svg>